<?xml version="1.0" encoding="UTF-8" standalone="no"?>
<svg width="120px" height="120px" viewBox="0 0 120 120" version="1.1" xmlns="http://www.w3.org/2000/svg" xmlns:xlink="http://www.w3.org/1999/xlink">
	<g stroke="none" stroke-width="1" fill="none" fill-rule="evenodd">
		<path d="M120,108 C120,114.6 114.6,120 108,120 L12,120 C5.4,120 0,114.6 0,108 L0,12 C0,5.4 5.4,0 12,0 L108,0 C114.6,0 120,5.4 120,12 L120,108 L120,108 Z" id="Shape" fill="#2A739E"/>
        <path fill="#FFFFFF" d="m74 20h-32c-3.3 0-6 2.7-6 6v1c0 0.5 0.4 1 1 1h29c3.3 0 6 2.7 6 6v31c0 0.5 0.4 1 1 1 3.8 0 7-3.1 7-7v-33c0-3.3-2.7-6-6-6z m-46 14c-3.3 0-6 2.7-6 6v34c0 3.3 2.7 6 6 6h32c3.3 0 6-2.7 6-6v-34c0-3.3-2.7-6-6-6h-32z m8 14c0 1.1-0.9 2-2 2h-2c-1.1 0-2-0.9-2-2v-2c0-1.1 0.9-2 2-2h2c1.1 0 2 0.9 2 2v2z m22 0c0 1.1-0.9 2-2 2h-14c-1.1 0-2-0.9-2-2v-2c0-1.1 0.9-2 2-2h14c1.1 0 2 0.9 2 2v2z m-22 10c0 1.1-0.9 2-2 2h-2c-1.1 0-2-0.9-2-2v-2c0-1.1 0.9-2 2-2h2c1.1 0 2 0.9 2 2v2z m22 0c0 1.1-0.9 2-2 2h-14c-1.1 0-2-0.9-2-2v-2c0-1.1 0.9-2 2-2h14c1.1 0 2 0.9 2 2v2z m-22 10c0 1.1-0.9 2-2 2h-2c-1.1 0-2-0.9-2-2v-2c0-1.1 0.9-2 2-2h2c1.1 0 2 0.9 2 2v2z m22 0c0 1.1-0.9 2-2 2h-14c-1.1 0-2-0.9-2-2v-2c0-1.1 0.9-2 2-2h14c1.1 0 2 0.9 2 2v2z"></path>
	</g>
</svg>